<svg width="24" height="24" viewBox="0 0 24 24" fill="none" xmlns="http://www.w3.org/2000/svg">
<g id="Icon/Outline/bell">
<path id="Icon" d="M15 17H20L18.5 15.0001C18.119 14.6191 18 13.539 18 13.0001V11C18 8.38757 16.3304 6.16509 14 5.34142L12.7755 4.82633C12.2795 4.61771 11.7205 4.61771 11.2245 4.82633L10 5.34142C7.66962 6.16509 6 8.38757 6 11V13.0001C6 13.539 5.69088 14.6191 5.30986 15.0001L4 17H9M15 17V18C15 19.6569 13.6569 21 12 21C10.3431 21 9 19.6569 9 18V17M15 17H9" stroke="white" stroke-width="1.5" stroke-linecap="round" stroke-linejoin="round"/>
</g>
</svg>
