<svg width="24" height="25" viewBox="0 0 24 25" fill="none" xmlns="http://www.w3.org/2000/svg">
<g id="Icon/Outline/presentation-chart-line">
<path id="Icon" d="M4 4.5V3.75H3.25V4.5H4ZM20 4.5H20.75V3.75H20V4.5ZM6.46967 11.9697C6.17678 12.2626 6.17678 12.7374 6.46967 13.0303C6.76256 13.3232 7.23744 13.3232 7.53033 13.0303L6.46967 11.9697ZM10 9.5L10.5303 8.96967C10.2374 8.67678 9.76256 8.67678 9.46967 8.96967L10 9.5ZM13 12.5L12.4697 13.0303C12.7626 13.3232 13.2374 13.3232 13.5303 13.0303L13 12.5ZM17.5303 9.03033C17.8232 8.73744 17.8232 8.26256 17.5303 7.96967C17.2374 7.67678 16.7626 7.67678 16.4697 7.96967L17.5303 9.03033ZM7.46967 20.9697C7.17678 21.2626 7.17678 21.7374 7.46967 22.0303C7.76256 22.3232 8.23744 22.3232 8.53033 22.0303L7.46967 20.9697ZM12 17.5L12.5303 16.9697C12.2374 16.6768 11.7626 16.6768 11.4697 16.9697L12 17.5ZM15.4697 22.0303C15.7626 22.3232 16.2374 22.3232 16.5303 22.0303C16.8232 21.7374 16.8232 21.2626 16.5303 20.9697L15.4697 22.0303ZM3 3.75C2.58579 3.75 2.25 4.08579 2.25 4.5C2.25 4.91421 2.58579 5.25 3 5.25V3.75ZM21 5.25C21.4142 5.25 21.75 4.91421 21.75 4.5C21.75 4.08579 21.4142 3.75 21 3.75V5.25ZM4 5.25H20V3.75H4V5.25ZM19.25 4.5V16.5H20.75V4.5H19.25ZM19 16.75H5V18.25H19V16.75ZM4.75 16.5V4.5H3.25V16.5H4.75ZM5 16.75C4.86193 16.75 4.75 16.6381 4.75 16.5H3.25C3.25 17.4665 4.0335 18.25 5 18.25V16.75ZM19.25 16.5C19.25 16.6381 19.1381 16.75 19 16.75V18.25C19.9665 18.25 20.75 17.4665 20.75 16.5H19.25ZM7.53033 13.0303L10.5303 10.0303L9.46967 8.96967L6.46967 11.9697L7.53033 13.0303ZM9.46967 10.0303L12.4697 13.0303L13.5303 11.9697L10.5303 8.96967L9.46967 10.0303ZM13.5303 13.0303L17.5303 9.03033L16.4697 7.96967L12.4697 11.9697L13.5303 13.0303ZM8.53033 22.0303L12.5303 18.0303L11.4697 16.9697L7.46967 20.9697L8.53033 22.0303ZM11.4697 18.0303L15.4697 22.0303L16.5303 20.9697L12.5303 16.9697L11.4697 18.0303ZM3 5.25H21V3.75H3V5.25Z" fill="#6A61F3"/>
</g>
</svg>
