<svg width="20" height="21" viewBox="0 0 20 21" fill="none" xmlns="http://www.w3.org/2000/svg">
<g id="Group">
<path id="Vector" d="M1 5.1L4.969 2.031C5.13645 1.86255 5.33559 1.7289 5.55493 1.63777C5.77427 1.54663 6.00948 1.49981 6.247 1.5H13.753C13.9905 1.49981 14.2257 1.54663 14.4451 1.63777C14.6644 1.7289 14.8635 1.86255 15.031 2.031L19 5.1M2.8 10.5V17.7C2.8 18.1774 2.98964 18.6352 3.32721 18.9728C3.66477 19.3104 4.12261 19.5 4.6 19.5H15.4C15.8774 19.5 16.3352 19.3104 16.6728 18.9728C17.0104 18.6352 17.2 18.1774 17.2 17.7V10.5" stroke="#94A3B8" stroke-width="1.5" stroke-linecap="round" stroke-linejoin="round"/>
<path id="Vector_2" d="M12.7 19.5001V15.0001C12.7 14.5227 12.5104 14.0649 12.1728 13.7273C11.8352 13.3897 11.3774 13.2001 10.9 13.2001H9.1C8.62261 13.2001 8.16477 13.3897 7.82721 13.7273C7.48964 14.0649 7.3 14.5227 7.3 15.0001V19.5001M1 5.1001H19V7.8001C19 8.27749 18.8104 8.73532 18.4728 9.07289C18.1352 9.41045 17.6774 9.6001 17.2 9.6001C16.6742 9.57116 16.172 9.37217 15.769 9.0331C15.6616 8.95549 15.5325 8.91372 15.4 8.91372C15.2675 8.91372 15.1384 8.95549 15.031 9.0331C14.628 9.37217 14.1258 9.57116 13.6 9.6001C13.0742 9.57116 12.572 9.37217 12.169 9.0331C12.0616 8.95549 11.9325 8.91372 11.8 8.91372C11.6675 8.91372 11.5384 8.95549 11.431 9.0331C11.028 9.37217 10.5258 9.57116 10 9.6001C9.47416 9.57116 8.97196 9.37217 8.569 9.0331C8.46161 8.95549 8.33249 8.91372 8.2 8.91372C8.06751 8.91372 7.93839 8.95549 7.831 9.0331C7.42804 9.37217 6.92584 9.57116 6.4 9.6001C5.87416 9.57116 5.37196 9.37217 4.969 9.0331C4.86161 8.95549 4.73249 8.91372 4.6 8.91372C4.46751 8.91372 4.33839 8.95549 4.231 9.0331C3.82804 9.37217 3.32584 9.57116 2.8 9.6001C2.32261 9.6001 1.86477 9.41045 1.52721 9.07289C1.18964 8.73532 1 8.27749 1 7.8001V5.1001Z" stroke="#94A3B8" stroke-width="1.5" stroke-linecap="round" stroke-linejoin="round"/>
</g>
</svg>
